<?xml version="1.0" encoding="utf-8"?>
<!-- Generator: Adobe Illustrator 16.0.0, SVG Export Plug-In . SVG Version: 6.00 Build 0)  -->
<!DOCTYPE svg PUBLIC "-//W3C//DTD SVG 1.1//EN" "http://www.w3.org/Graphics/SVG/1.1/DTD/svg11.dtd">
<svg version="1.1" xmlns="http://www.w3.org/2000/svg" xmlns:xlink="http://www.w3.org/1999/xlink" x="0px" y="0px"
	 width="1035.313px" height="134.042px" viewBox="0 0 1035.313 134.042" enable-background="new 0 0 1035.313 134.042"
	 xml:space="preserve">
<g id="bg">
</g>
<g id="text">
	<g>
		<g>
			
				<path fill="none" stroke="#FFFFFF" stroke-width="20" stroke-linecap="round" stroke-linejoin="round" stroke-miterlimit="10" d="
				M60.625,78.984L57.5,103.301H21.074v-9.375c1.692-4.102,4.688-9.473,8.984-16.113c5.078-8.008,8.333-13.379,9.766-16.113
				c3.06-5.923,4.59-10.806,4.59-14.648c0-3.189-0.586-5.957-1.758-8.301c-1.563-2.994-3.776-4.492-6.641-4.492
				c-1.823,0-3.386,0.62-4.688,1.855c-1.367,1.172-2.051,2.67-2.051,4.492c0,0.522,0.65,1.172,1.953,1.953
				c1.692,1.042,2.896,1.987,3.613,2.832c1.236,1.433,1.855,3.256,1.855,5.469c0,2.084-0.781,3.809-2.344,5.176
				c-1.628,1.433-3.483,2.148-5.566,2.148C22.93,58.184,20,54.245,20,46.367c0-4.817,2.051-8.724,6.152-11.719
				c3.646-2.734,7.975-4.102,12.988-4.102c5.859,0,10.677,1.53,14.453,4.59c4.166,3.256,6.25,7.78,6.25,13.574
				c0,4.297-2.214,8.854-6.641,13.672C52.552,63.1,47.93,67.299,39.336,74.98c-5.925,5.339-9.994,10.222-12.207,14.648h17.285
				c6.641,0,11.263-3.548,13.867-10.645H60.625z"/>
			
				<path fill="none" stroke="#FFFFFF" stroke-width="20" stroke-linecap="round" stroke-linejoin="round" stroke-miterlimit="10" d="
				M120.527,67.754c0,9.311-1.172,17.155-3.516,23.535c-3.386,9.114-8.952,13.672-16.699,13.672
				c-7.748,0-13.314-4.558-16.699-13.672c-2.344-6.38-3.516-14.224-3.516-23.535c0-9.31,1.172-17.154,3.516-23.535
				c3.385-9.114,8.951-13.672,16.699-13.672c7.747,0,13.313,4.558,16.699,13.672C119.355,50.6,120.527,58.444,120.527,67.754z
				 M106.66,67.754c0-22.591-2.084-33.887-6.25-33.887c-4.102,0-6.152,11.296-6.152,33.887c0,22.592,2.051,33.887,6.152,33.887
				C104.576,101.641,106.66,90.346,106.66,67.754z"/>
			
				<path fill="none" stroke="#FFFFFF" stroke-width="20" stroke-linecap="round" stroke-linejoin="round" stroke-miterlimit="10" d="
				M180.625,78.984l-3.125,24.316h-36.426v-9.375c1.692-4.102,4.688-9.473,8.984-16.113c5.078-8.008,8.333-13.379,9.766-16.113
				c3.06-5.923,4.59-10.806,4.59-14.648c0-3.189-0.586-5.957-1.758-8.301c-1.563-2.994-3.776-4.492-6.641-4.492
				c-1.823,0-3.386,0.62-4.688,1.855c-1.367,1.172-2.051,2.67-2.051,4.492c0,0.522,0.65,1.172,1.953,1.953
				c1.692,1.042,2.896,1.987,3.613,2.832c1.236,1.433,1.855,3.256,1.855,5.469c0,2.084-0.781,3.809-2.344,5.176
				c-1.628,1.433-3.483,2.148-5.566,2.148c-5.859,0-8.789-3.938-8.789-11.816c0-4.817,2.051-8.724,6.152-11.719
				c3.646-2.734,7.975-4.102,12.988-4.102c5.859,0,10.677,1.53,14.453,4.59c4.166,3.256,6.25,7.78,6.25,13.574
				c0,4.297-2.214,8.854-6.641,13.672c-0.651,0.717-5.273,4.917-13.867,12.598c-5.925,5.339-9.994,10.222-12.207,14.648h17.285
				c6.641,0,11.263-3.548,13.867-10.645H180.625z"/>
			
				<path fill="none" stroke="#FFFFFF" stroke-width="20" stroke-linecap="round" stroke-linejoin="round" stroke-miterlimit="10" d="
				M240.527,67.754c0,9.311-1.172,17.155-3.516,23.535c-3.386,9.114-8.952,13.672-16.699,13.672
				c-7.748,0-13.314-4.558-16.699-13.672c-2.344-6.38-3.516-14.224-3.516-23.535c0-9.31,1.172-17.154,3.516-23.535
				c3.385-9.114,8.951-13.672,16.699-13.672c7.747,0,13.313,4.558,16.699,13.672C239.355,50.6,240.527,58.444,240.527,67.754z
				 M226.66,67.754c0-22.591-2.084-33.887-6.25-33.887c-4.102,0-6.152,11.296-6.152,33.887c0,22.592,2.051,33.887,6.152,33.887
				C224.576,101.641,226.66,90.346,226.66,67.754z"/>
			
				<path fill="none" stroke="#FFFFFF" stroke-width="20" stroke-linecap="round" stroke-linejoin="round" stroke-miterlimit="10" d="
				M295.938,21.172l17.48,1.27c2.148,0.195,3.223,0.815,3.223,1.855c0,0.847-1.433,1.855-4.297,3.027v33.203h18.262l8.594-10.84
				l12.891,10.84l-2.246,2.734h-27.441v31.348c0,1.172,0.813,1.792,2.441,1.855h11.23c1.953,0,3.223-1.236,3.809-3.711l2.93-13.379
				h2.344c0,8.139,0.488,12.858,1.465,14.16c0.846,1.303,2.799,2.28,5.859,2.93c-1.889,6.966-3.613,11.23-5.176,12.793
				c-1.693,1.431-3.581,2.148-5.664,2.148h-28.906c-1.758,0-3.32-0.651-4.688-1.953c-1.367-1.237-2.051-3.061-2.051-5.469V63.262
				h-7.52c-1.172,17.773-3.646,29.428-7.422,34.961c-5.404,8.398-16.016,13.672-31.836,15.82l-0.391-2.246
				c9.18-4.428,15.169-10.124,17.969-17.09c2.408-5.664,3.938-16.146,4.59-31.445h-21.875l-1.074-2.734h37.5V21.172z
				 M268.105,26.934c9.83,3.711,16.211,7.227,19.141,10.547c2.083,2.995,3.125,6.25,3.125,9.766c0,2.409-0.749,4.59-2.246,6.543
				c-1.823,1.889-3.939,2.832-6.348,2.832c-1.889,0-3.679-0.879-5.371-2.637c-1.498-1.563-2.441-5.044-2.832-10.449
				c-0.651-5.664-2.832-10.513-6.543-14.551L268.105,26.934z M328.359,26.543l15.43,7.129c1.953,0.781,2.93,1.694,2.93,2.734
				c0,1.042-1.433,1.66-4.297,1.855c-8.594,8.203-16.928,14.323-25,18.359l-0.781-1.563
				C320.416,47.963,324.322,38.457,328.359,26.543z"/>
			
				<path fill="none" stroke="#FFFFFF" stroke-width="20" stroke-linecap="round" stroke-linejoin="round" stroke-miterlimit="10" d="
				M403.105,21.465l8.594,6.738l-1.465,2.637h-8.984v7.422l0.391-0.293l8.105,5.371c0.455,0.327,0.748,0.586,0.879,0.781v-5.566
				c-1.107,0.456-2.182,0.879-3.223,1.27l-0.684-0.391c2.278-2.798,4.199-5.696,5.762-8.691c1.172-2.278,2.344-5.599,3.516-9.961
				l13.77,3.125c1.041,0.261,1.563,0.781,1.563,1.563c0,0.586-0.944,1.206-2.832,1.855c-0.326,0.391-0.619,0.684-0.879,0.879h17.285
				l6.738-7.813l9.668,7.813l-1.855,2.637h-6.445l5.957,4.297l-1.172,2.832h-5.078l6.641,4.102c0.846,0.456,1.27,0.879,1.27,1.27
				c0,0.586-0.944,1.53-2.832,2.832v31.152l-11.328,1.27v-4.688h-24.121v3.027l-11.719,1.66v-6.25l-0.781,1.953h-25.391v2.246
				l-4.297,0.684l10.156,3.613h48.047l4.297-3.906l10.449,7.031c1.627,1.108,2.441,1.921,2.441,2.441
				c0,0.651-0.912,1.401-2.734,2.246v15.723l2.734-4.297l6.934,7.422l-1.465,2.637h-90.723l-1.074-2.637h6.641V78.008l-3.516,0.586
				V24.688l10.352,3.516h14.648L403.105,21.465z M384.453,41.484h5.078V30.84h-5.078V41.484z M384.453,57.109h12.012V44.121h-12.012
				V57.109z M384.453,71.465h5.078V59.746h-5.078V71.465z M390.605,107.5h6.738V83.672h-6.738V107.5z M410.625,71.074V45.488
				c-0.391,0.327-1.205,0.651-2.441,0.977v14.063l-6.934,1.074v8.691l3.418-4.98L410.625,71.074z M409.844,107.5h7.324V83.672
				h-7.324V107.5z M422.344,41.484h5.078V30.84h-3.027c-1.498,1.237-2.93,2.214-4.297,2.93c-2.279,1.303-4.655,2.539-7.129,3.711
				L422.344,41.484z M441.68,53.203c2.213,0.522,3.711,1.074,4.492,1.66c0.13,0.131,0.228,0.229,0.293,0.293V44.121h-15.332
				c1.432,0.522,2.474,1.01,3.125,1.465c0.65,0.586,0.977,1.27,0.977,2.051c0,0.913-0.326,1.726-0.977,2.441
				c-0.781,0.717-1.628,1.074-2.539,1.074c-0.456,0-0.879-0.228-1.27-0.684c-0.456-0.325-0.717-1.204-0.781-2.637
				c-0.131-1.367-0.651-2.603-1.563-3.711h-5.762v9.57c2.994,0.717,4.947,1.433,5.859,2.148c0.977,0.913,1.465,1.855,1.465,2.832
				c0,0.781-0.293,1.53-0.879,2.246c-0.651,0.847-1.237,1.27-1.758,1.27c-1.172,0-1.986-1.009-2.441-3.027
				c-0.391-1.692-1.14-3.157-2.246-4.395V70c3.775-3.384,6.934-6.9,9.473-10.547c0.195-0.325,0.391-0.65,0.586-0.977
				c-0.261-0.521-0.521-0.943-0.781-1.27c-1.758-2.344-4.721-5.533-8.887-9.57v-0.391c4.557,2.214,8.365,4.492,11.426,6.836
				c0.195,0.131,0.325,0.229,0.391,0.293c1.172-2.734,2.148-5.859,2.93-9.375l7.422,1.855c0.521,0.195,0.781,0.456,0.781,0.781
				c0,0.261-0.488,0.522-1.465,0.781C443.372,50.241,442.525,51.836,441.68,53.203z M422.344,71.172h8.887
				c-0.131-0.521-0.229-1.204-0.293-2.051c-0.131-1.106-0.424-2.051-0.879-2.832c-2.344,1.628-4.916,3.125-7.715,4.492V71.172z
				 M429.668,107.5h7.422V83.672h-7.422V107.5z M431.621,64.922c2.083,0.717,3.45,1.303,4.102,1.758
				c0.65,0.586,0.977,1.27,0.977,2.051c0,0.977-0.261,1.792-0.781,2.441h10.547V60.723c-0.326,0.131-0.586,0.195-0.781,0.195
				c-1.563,0-2.637-0.977-3.223-2.93c-0.456-1.106-1.074-2.115-1.855-3.027c-0.651,1.042-1.27,1.987-1.855,2.832
				c0.911,0.913,1.692,1.792,2.344,2.637c1.563,2.084,2.344,3.972,2.344,5.664c0,0.781-0.293,1.465-0.879,2.051
				c-0.651,0.651-1.303,0.977-1.953,0.977c-2.214,0-3.711-1.172-4.492-3.516c-0.391-1.106-0.847-2.181-1.367-3.223
				C433.704,63.295,432.662,64.141,431.621,64.922z M440.313,35.137h7.813l3.906-4.297h-11.719V35.137z M446.66,41.484l3.027-3.516
				h-9.375v3.516H446.66z"/>
			
				<path fill="none" stroke="#FFFFFF" stroke-width="20" stroke-linecap="round" stroke-linejoin="round" stroke-miterlimit="10" d="
				M491.328,20.781l15.82,6.152h32.617L547.09,20l11.23,7.227c1.953,1.237,2.93,2.182,2.93,2.832c0,1.108-0.488,1.921-1.465,2.441
				l-2.441,1.465c0,8.854-0.131,17.319-0.391,25.391h1.563l5.762-9.277l8.594,9.277l-1.855,2.832h-14.16
				c-0.391,10.092-0.944,19.629-1.66,28.613l6.836-8.301l10.449,8.594l-1.855,2.637h-15.723c-0.781,8.008-2.441,13.411-4.98,16.211
				c-2.279,2.474-8.432,3.711-18.457,3.711c-0.131-4.948-0.619-8.171-1.465-9.668c-0.586-1.367-2.539-2.539-5.859-3.516v-2.441
				h13.477c0.195-1.431,0.325-2.864,0.391-4.297h-37.891l-0.586,7.031l-16.406,1.172l4.004-39.746h-8.301l-1.172-2.832h9.766
				L491.328,20.781z M500.41,91.094h37.891c0.911-10.156,1.595-19.791,2.051-28.906h-37.305L500.41,91.094z M503.34,59.355h37.207
				c0.521-10.416,0.781-20.279,0.781-29.59h-35.352L503.34,59.355z M510.859,63.262c9.57,2.734,15.787,5.307,18.652,7.715
				c2.148,2.214,3.223,4.624,3.223,7.227c0,2.475-0.847,4.688-2.539,6.641c-1.758,2.084-3.906,3.125-6.445,3.125
				c-1.823,0-3.549-0.781-5.176-2.344c-1.433-1.172-2.312-4.004-2.637-8.496c-0.586-4.556-2.702-8.496-6.348-11.816L510.859,63.262z
				 M512.422,32.109c9.57,2.28,15.787,4.46,18.652,6.543c2.083,1.953,3.125,4.069,3.125,6.348c0,2.539-0.847,4.851-2.539,6.934
				c-2.019,2.084-4.395,3.125-7.129,3.125c-1.758,0-3.354-0.684-4.785-2.051c-1.498-1.172-2.377-3.809-2.637-7.91
				c-0.521-4.297-2.475-8.008-5.859-11.133L512.422,32.109z"/>
			
				<path fill="none" stroke="#FFFFFF" stroke-width="20" stroke-linecap="round" stroke-linejoin="round" stroke-miterlimit="10" d="
				M602.012,21.172l16.602,1.27c2.018,0.195,3.027,0.815,3.027,1.855c0,0.781-1.303,1.66-3.906,2.637v8.203h1.855l6.738-7.813
				l7.422,6.055V20.781l15.039,6.543h11.719l5.566-6.543l11.328,7.227c1.041,0.586,1.563,1.172,1.563,1.758
				c0,0.717-0.879,1.889-2.637,3.516v47.168l-8.203,1.074V95c0.064,1.499,0.553,2.246,1.465,2.246h3.906
				c0.977,0,1.92-4.036,2.832-12.109h1.465c0.13,4.753,0.488,7.91,1.074,9.473c0.521,1.499,1.855,2.767,4.004,3.809
				c-0.717,5.533-1.563,8.951-2.539,10.254c-1.042,1.822-2.377,2.734-4.004,2.734h-16.797c-1.498,0-2.734-0.879-3.711-2.637
				c-0.912-1.367-1.367-3.516-1.367-6.445v-25h-2.148c-0.391,10.612-2.409,17.969-6.055,22.07
				c-4.623,5.664-13.379,10.188-26.27,13.574l-0.391-2.051c7.096-3.906,11.914-8.073,14.453-12.5
				c1.888-3.646,3.06-9.668,3.516-18.066l-3.809,0.488v-8.301l-1.27,2.148h-15.137v4.492c5.989,1.499,10.025,3.125,12.109,4.883
				c2.604,2.214,3.906,4.558,3.906,7.031c0,1.758-0.651,3.452-1.953,5.078c-1.303,1.497-2.637,2.246-4.004,2.246
				c-3.061,0-5.144-2.31-6.25-6.934c-0.912-2.864-2.182-5.435-3.809-7.715v28.027l-14.941,1.855V97.148
				c-4.948,2.994-9.473,5.273-13.574,6.836l-0.781-0.781c3.32-4.362,6.217-9.341,8.691-14.941c1.692-3.711,3.125-8.235,4.297-13.574
				h-10.352l-1.172-2.832h12.891V61.406l14.941,0.879c2.018,0.327,3.027,0.913,3.027,1.758c0,0.847-1.01,1.66-3.027,2.441v5.371
				h2.246l5.957-6.543l8.203,6.25V60.527h-44.531l-1.172-2.637h9.18c-0.195-0.259-0.358-0.488-0.488-0.684
				c-0.717-1.041-1.14-3.32-1.27-6.836c-0.261-3.775-1.172-6.998-2.734-9.668l1.074-1.66c5.664,2.148,9.342,4.167,11.035,6.055
				c1.236,1.758,1.855,3.647,1.855,5.664c0,2.148-0.684,4.038-2.051,5.664c-0.651,0.651-1.27,1.14-1.855,1.465h8.496l4.492-19.922
				h-25.488l-1.074-2.832h12.793V21.172z M633.75,55.059v-17.09h-14.355l10.059,3.613c1.236,0.391,1.855,0.977,1.855,1.758
				c0,0.913-1.303,1.465-3.906,1.66l-11.23,12.891h5.859l6.152-7.129L633.75,55.059z M648.105,42.559h12.891v-12.5h-12.891V42.559z
				 M648.105,58.281h12.891V45.391h-12.891V58.281z M648.105,74.688h12.891v-13.77h-12.891V74.688z"/>
			
				<path fill="none" stroke="#FFFFFF" stroke-width="20" stroke-linecap="round" stroke-linejoin="round" stroke-miterlimit="10" d="
				M710.547,21.172l16.309,2.637c1.106,0.391,1.66,0.944,1.66,1.66c0,0.586-1.074,1.206-3.223,1.855
				c-1.498,2.475-2.963,4.688-4.395,6.641h9.961l6.934-8.496l10.254,8.203c1.172-3.255,2.474-7.681,3.906-13.281l16.699,2.539
				c1.106,0.456,1.66,1.042,1.66,1.758c0,0.717-1.074,1.465-3.223,2.246c-1.758,2.8-3.451,5.273-5.078,7.422h11.816l7.422-8.887
				l10.84,8.887l-1.855,2.832h-21.191c2.474,0.586,4.231,1.172,5.273,1.758c1.758,1.172,2.637,2.377,2.637,3.613
				c0,2.148-0.749,4.038-2.246,5.664c-1.498,1.694-3.354,2.539-5.566,2.539c-1.433,0-2.768-0.455-4.004-1.367
				c-1.172-0.781-1.889-2.539-2.148-5.273c-0.391-2.474-1.66-4.622-3.809-6.445c-1.563,2.019-3.061,3.613-4.492,4.785
				c-1.889,1.694-3.776,3.061-5.664,4.102l14.844,6.641h6.641l5.957-7.031l12.695,7.422c0.977,0.717,1.465,1.335,1.465,1.855
				c0,0.781-1.205,1.855-3.613,3.223v37.793c0.13,2.994-0.717,5.403-2.539,7.227c-2.279,2.148-6.901,3.287-13.867,3.418
				c-0.521-5.991-1.205-9.733-2.051-11.23c-1.303-2.212-2.963-3.809-4.98-4.785v-1.27h7.813V55.84h-8.203v56.348l-15.137,1.855
				V47.246c-2.344,1.367-4.688,2.441-7.031,3.223l-0.391-1.172c2.213-3.255,4.231-7.324,6.055-12.207
				c0.195-0.521,0.455-1.106,0.781-1.758l-1.074,1.465h-21.484c3.125,0.913,5.338,1.758,6.641,2.539
				c1.563,1.367,2.344,2.832,2.344,4.395c0,2.019-0.651,3.842-1.953,5.469c-1.563,1.563-3.386,2.344-5.469,2.344
				c-1.367,0-2.604-0.488-3.711-1.465c-1.172-0.845-1.855-2.734-2.051-5.664c-0.326-2.408-1.303-4.524-2.93-6.348
				c-1.823,2.409-3.516,4.265-5.078,5.566c-2.475,2.148-4.916,3.906-7.324,5.273l13.965,4.688h9.277l5.664-5.176l10.645,7.031
				c0.977,0.781,1.465,1.465,1.465,2.051c0,0.717-0.879,1.465-2.637,2.246V80.84l-14.941,2.051v-4.297h-9.277V91.68l10.449-1.27
				c-0.912-2.083-2.084-3.97-3.516-5.664l1.27-1.465c8.398,3.061,13.834,5.925,16.309,8.594c1.822,2.475,2.734,5.209,2.734,8.203
				c0,2.148-0.717,4.102-2.148,5.859c-1.693,1.822-3.711,2.734-6.055,2.734c-1.498,0-2.963-0.815-4.395-2.441
				c-1.237-1.237-1.986-4.199-2.246-8.887c-0.065-0.911-0.195-1.758-0.391-2.539l-23.047,14.16c-0.781,2.148-1.66,3.223-2.637,3.223
				c-0.586,0-1.172-0.781-1.758-2.344l-4.883-15.723l4.98-0.586V49.59c-1.823,0.977-3.613,1.758-5.371,2.344l-0.391-1.172
				c2.344-3.32,4.524-7.486,6.543-12.5C706.543,34.877,708.398,29.18,710.547,21.172z M719.531,56.23v8.203h9.277V56.23H719.531z
				 M719.531,67.266v8.496h9.277v-8.496H719.531z"/>
			
				<path fill="none" stroke="#FFFFFF" stroke-width="20" stroke-linecap="round" stroke-linejoin="round" stroke-miterlimit="10" d="
				M889.199,24.688l10.254,8.203l-2.051,2.637h-27.734c0.65,7.227,1.953,12.827,3.906,16.797c2.474-3.97,4.947-8.528,7.422-13.672
				l13.77,8.008c1.041,0.586,1.563,1.172,1.563,1.758c0,1.108-1.172,1.792-3.516,2.051c-3.972,4.428-7.617,8.171-10.938,11.23
				c2.278,1.628,4.98,3.223,8.105,4.785l7.813-13.281l2.051,0.781c-1.889,6.25-2.832,10.288-2.832,12.109
				c0.325,3.32,1.399,5.502,3.223,6.543c-0.261,1.953-1.107,3.906-2.539,5.859c-1.563,1.823-3.32,2.734-5.273,2.734
				c-0.651,0-1.335-0.032-2.051-0.098l2.441,1.465c0.977,0.651,1.465,1.237,1.465,1.758c0,0.651-1.303,1.726-3.906,3.223v18.555
				l4.297-7.227l7.813,8.594l-1.465,2.637h-91.113l-1.074-2.637h9.668V78.789c-2.475,2.409-5.339,4.655-8.594,6.738l-1.465-1.172
				c2.278-3.711,3.971-8.105,5.078-13.184c0.911-4.751,1.399-11.556,1.465-20.41V26.152l15.918,6.738h23.73
				c-0.391-3.97-0.684-8.138-0.879-12.5l17.188,0.488c0.391,0.065,0.716,0.163,0.977,0.293c6.055,0,10.025,0.586,11.914,1.758
				c2.083,1.172,3.125,2.637,3.125,4.395L889.199,24.688z M873.867,81.621l4.492-4.59c-3.386-1.497-6.445-3.516-9.18-6.055
				c-6.12,3.386-13.379,6.413-21.777,9.082l-0.684-1.074c6.966-4.556,12.728-9.212,17.285-13.965
				c-0.521-0.65-0.977-1.27-1.367-1.855c-3.646-5.403-6.218-14.615-7.715-27.637h-24.316v10.645h9.18l6.152-5.469l10.254,6.934
				c0.65,0.522,0.977,1.206,0.977,2.051c0,0.651-0.488,1.172-1.465,1.563l-1.953,0.684c0,5.729-0.554,11.069-1.66,16.016
				c-0.912,3.972-2.409,6.479-4.492,7.52c-2.344,0.977-6.706,1.465-13.086,1.465c0.064-4.556-0.424-7.52-1.465-8.887
				c-1.107-1.626-2.832-2.669-5.176-3.125c-0.521,1.367-1.074,2.637-1.66,3.809c-1.563,2.995-3.581,5.795-6.055,8.398l12.988,4.492
				H873.867z M828.652,62.969h9.277c1.236-3.32,1.92-8.008,2.051-14.063h-9.375v1.855C830.54,55.124,829.889,59.194,828.652,62.969z
				 M833.438,107.5h5.078V84.355h-5.078V107.5z M851.309,107.5h5.078V84.355h-5.078V107.5z M878.945,32.891
				c-0.651-0.259-1.205-0.65-1.66-1.172c-0.847-0.911-1.367-1.985-1.563-3.223c0-1.041-0.358-2.051-1.074-3.027
				c-0.326-0.716-1.01-1.497-2.051-2.344c-0.195,0.391-0.488,0.684-0.879,0.879l-2.441,1.074c0,2.8,0.064,5.405,0.195,7.813H878.945
				z M869.277,107.5h5.566V84.355h-5.566V107.5z"/>
			
				<path fill="none" stroke="#FFFFFF" stroke-width="20" stroke-linecap="round" stroke-linejoin="round" stroke-miterlimit="10" d="
				M955.156,20.781l17.871,1.367c2.148,0.261,3.223,0.977,3.223,2.148c0,0.847-1.433,1.855-4.297,3.027v5.566h21.094l5.078-6.348
				l12.695,9.668c1.106,1.042,1.66,2.116,1.66,3.223c0,1.367-1.042,2.051-3.125,2.051h-6.25l-9.277,3.223l0.586,0.391
				c1.106,0.847,1.66,1.563,1.66,2.148c0,0.717-1.14,1.53-3.418,2.441v21.484l-16.406,2.246v-5.859h-24.219v0.781l11.621,3.32
				c1.563,0.456,2.344,1.206,2.344,2.246c0,0.717-1.303,1.335-3.906,1.855l-1.27,2.051h33.398l7.422-9.082l10.84,9.082l-1.855,2.637
				h-19.922c-2.93,4.819-5.729,8.92-8.398,12.305c2.083,0.195,3.743,0.424,4.98,0.684c4.557,0.913,8.301,2.409,11.23,4.492
				c2.604,1.822,3.906,3.97,3.906,6.445c0,2.278-0.944,4.524-2.832,6.738c-2.084,1.953-4.135,2.93-6.152,2.93
				c-2.214,0-4.688-1.401-7.422-4.199c-2.995-2.734-7.194-5.437-12.598-8.105c-4.102,3.125-9.082,5.501-14.941,7.129
				c-9.701,2.798-22.168,4.263-37.402,4.395v-1.465c14.322-2.214,24.967-5.632,31.934-10.254c2.213-1.303,4.361-3.027,6.445-5.176
				c-2.93-0.911-6.088-1.79-9.473-2.637l-4.297,6.348l-14.746-4.297l10.645-15.332h-22.363l-1.172-2.637h25.488l4.785-6.934
				l-12.305,1.758V37.969l15.723,5.371h24.414l6.641-5.762l6.836,4.395l3.516-6.445h-59.18c0.325,2.019,0.488,3.874,0.488,5.566
				c0,3.776-0.586,6.511-1.758,8.203c-1.563,2.019-3.581,3.027-6.055,3.027c-2.539,0-4.558-0.586-6.055-1.758
				c-1.433-1.497-2.148-3.091-2.148-4.785c0-3.125,1.953-5.859,5.859-8.203c3.516-2.344,5.599-5.892,6.25-10.645h1.855
				c0.521,2.084,0.911,4.069,1.172,5.957h21.582V20.781z M952.031,54.375h24.219v-8.203h-24.219V54.375z M952.031,64.824h24.219
				v-7.715h-24.219V64.824z M952.129,90.605c4.361,0.195,8.301,0.424,11.816,0.684c2.539-3.189,4.947-6.802,7.227-10.84h-12.207
				L952.129,90.605z"/>
		</g>
		<g>
			<linearGradient id="SVGID_2_" gradientUnits="userSpaceOnUse" x1="40.3853" y1="103.5449" x2="40.3853" y2="30.791">
				<stop  offset="0" style="stop-color:#FEC721"/>
				<stop  offset="0.5" style="stop-color:#ED9008"/>
				<stop  offset="1" style="stop-color:#BF5900"/>
			</linearGradient>
			<path fill="url(#SVGID_2_)" d="M60.698,79.229l-3.125,24.316H21.147V94.17c1.692-4.102,4.688-9.473,8.984-16.113
				c5.078-8.008,8.333-13.379,9.766-16.113c3.06-5.923,4.59-10.806,4.59-14.648c0-3.189-0.586-5.957-1.758-8.301
				c-1.563-2.994-3.776-4.492-6.641-4.492c-1.823,0-3.386,0.62-4.688,1.855c-1.367,1.172-2.051,2.67-2.051,4.492
				c0,0.522,0.65,1.172,1.953,1.953c1.692,1.042,2.896,1.987,3.613,2.832c1.236,1.433,1.855,3.256,1.855,5.469
				c0,2.084-0.781,3.809-2.344,5.176c-1.628,1.433-3.483,2.148-5.566,2.148c-5.859,0-8.789-3.938-8.789-11.816
				c0-4.817,2.051-8.724,6.152-11.719c3.646-2.734,7.975-4.102,12.988-4.102c5.859,0,10.677,1.53,14.453,4.59
				c4.166,3.256,6.25,7.78,6.25,13.574c0,4.297-2.214,8.854-6.641,13.672c-0.651,0.717-5.273,4.917-13.867,12.598
				c-5.925,5.339-9.994,10.222-12.207,14.648h17.285c6.641,0,11.263-3.548,13.867-10.645H60.698z"/>
			<linearGradient id="SVGID_3_" gradientUnits="userSpaceOnUse" x1="100.3853" y1="105.2051" x2="100.3853" y2="30.791">
				<stop  offset="0" style="stop-color:#FEC721"/>
				<stop  offset="0.5" style="stop-color:#ED9008"/>
				<stop  offset="1" style="stop-color:#BF5900"/>
			</linearGradient>
			<path fill="url(#SVGID_3_)" d="M120.6,67.998c0,9.311-1.172,17.155-3.516,23.535c-3.386,9.114-8.952,13.672-16.699,13.672
				c-7.748,0-13.314-4.558-16.699-13.672c-2.344-6.38-3.516-14.224-3.516-23.535c0-9.31,1.172-17.154,3.516-23.535
				c3.385-9.114,8.951-13.672,16.699-13.672c7.747,0,13.313,4.558,16.699,13.672C119.428,50.844,120.6,58.688,120.6,67.998z
				 M106.733,67.998c0-22.591-2.084-33.887-6.25-33.887c-4.102,0-6.152,11.296-6.152,33.887c0,22.592,2.051,33.887,6.152,33.887
				C104.649,101.885,106.733,90.59,106.733,67.998z"/>
			<linearGradient id="SVGID_4_" gradientUnits="userSpaceOnUse" x1="160.3853" y1="103.5449" x2="160.3853" y2="30.791">
				<stop  offset="0" style="stop-color:#FEC721"/>
				<stop  offset="0.5" style="stop-color:#ED9008"/>
				<stop  offset="1" style="stop-color:#BF5900"/>
			</linearGradient>
			<path fill="url(#SVGID_4_)" d="M180.698,79.229l-3.125,24.316h-36.426V94.17c1.692-4.102,4.688-9.473,8.984-16.113
				c5.078-8.008,8.333-13.379,9.766-16.113c3.06-5.923,4.59-10.806,4.59-14.648c0-3.189-0.586-5.957-1.758-8.301
				c-1.563-2.994-3.776-4.492-6.641-4.492c-1.823,0-3.386,0.62-4.688,1.855c-1.367,1.172-2.051,2.67-2.051,4.492
				c0,0.522,0.65,1.172,1.953,1.953c1.692,1.042,2.896,1.987,3.613,2.832c1.236,1.433,1.855,3.256,1.855,5.469
				c0,2.084-0.781,3.809-2.344,5.176c-1.628,1.433-3.483,2.148-5.566,2.148c-5.859,0-8.789-3.938-8.789-11.816
				c0-4.817,2.051-8.724,6.152-11.719c3.646-2.734,7.975-4.102,12.988-4.102c5.859,0,10.677,1.53,14.453,4.59
				c4.166,3.256,6.25,7.78,6.25,13.574c0,4.297-2.214,8.854-6.641,13.672c-0.651,0.717-5.273,4.917-13.867,12.598
				c-5.925,5.339-9.994,10.222-12.207,14.648h17.285c6.641,0,11.263-3.548,13.867-10.645H180.698z"/>
			<linearGradient id="SVGID_5_" gradientUnits="userSpaceOnUse" x1="220.3853" y1="105.2051" x2="220.3853" y2="30.791">
				<stop  offset="0" style="stop-color:#FEC721"/>
				<stop  offset="0.5" style="stop-color:#ED9008"/>
				<stop  offset="1" style="stop-color:#BF5900"/>
			</linearGradient>
			<path fill="url(#SVGID_5_)" d="M240.6,67.998c0,9.311-1.172,17.155-3.516,23.535c-3.386,9.114-8.952,13.672-16.699,13.672
				c-7.748,0-13.314-4.558-16.699-13.672c-2.344-6.38-3.516-14.224-3.516-23.535c0-9.31,1.172-17.154,3.516-23.535
				c3.385-9.114,8.951-13.672,16.699-13.672c7.747,0,13.313,4.558,16.699,13.672C239.428,50.844,240.6,58.688,240.6,67.998z
				 M226.733,67.998c0-22.591-2.084-33.887-6.25-33.887c-4.102,0-6.152,11.296-6.152,33.887c0,22.592,2.051,33.887,6.152,33.887
				C224.649,101.885,226.733,90.59,226.733,67.998z"/>
			<linearGradient id="SVGID_6_" gradientUnits="userSpaceOnUse" x1="305.5317" y1="114.2871" x2="305.5317" y2="21.416">
				<stop  offset="0" style="stop-color:#FEC721"/>
				<stop  offset="0.5" style="stop-color:#ED9008"/>
				<stop  offset="1" style="stop-color:#BF5900"/>
			</linearGradient>
			<path fill="url(#SVGID_6_)" d="M296.01,21.416l17.48,1.27c2.148,0.195,3.223,0.815,3.223,1.855c0,0.847-1.433,1.855-4.297,3.027
				v33.203h18.262l8.594-10.84l12.891,10.84l-2.246,2.734h-27.441v31.348c0,1.172,0.813,1.792,2.441,1.855h11.23
				c1.953,0,3.223-1.236,3.809-3.711l2.93-13.379h2.344c0,8.139,0.488,12.858,1.465,14.16c0.846,1.303,2.799,2.28,5.859,2.93
				c-1.889,6.966-3.613,11.23-5.176,12.793c-1.693,1.431-3.581,2.148-5.664,2.148h-28.906c-1.758,0-3.32-0.651-4.688-1.953
				c-1.367-1.237-2.051-3.061-2.051-5.469V63.506h-7.52c-1.172,17.773-3.646,29.428-7.422,34.961
				c-5.404,8.398-16.016,13.672-31.836,15.82l-0.391-2.246c9.18-4.428,15.169-10.124,17.969-17.09
				c2.408-5.664,3.938-16.146,4.59-31.445h-21.875l-1.074-2.734h37.5V21.416z M268.178,27.178
				c9.83,3.711,16.211,7.227,19.141,10.547c2.083,2.995,3.125,6.25,3.125,9.766c0,2.409-0.749,4.59-2.246,6.543
				c-1.823,1.889-3.939,2.832-6.348,2.832c-1.889,0-3.679-0.879-5.371-2.637c-1.498-1.563-2.441-5.044-2.832-10.449
				c-0.651-5.664-2.832-10.513-6.543-14.551L268.178,27.178z M328.432,26.787l15.43,7.129c1.953,0.781,2.93,1.694,2.93,2.734
				c0,1.042-1.433,1.66-4.297,1.855c-8.594,8.203-16.928,14.323-25,18.359l-0.781-1.563
				C320.489,48.208,324.395,38.701,328.432,26.787z"/>
			<linearGradient id="SVGID_7_" gradientUnits="userSpaceOnUse" x1="415.9224" y1="110.3809" x2="415.9224" y2="20.6348">
				<stop  offset="0" style="stop-color:#FEC721"/>
				<stop  offset="0.5" style="stop-color:#ED9008"/>
				<stop  offset="1" style="stop-color:#BF5900"/>
			</linearGradient>
			<path fill="url(#SVGID_7_)" d="M403.178,21.709l8.594,6.738l-1.465,2.637h-8.984v7.422l0.391-0.293l8.105,5.371
				c0.455,0.327,0.748,0.586,0.879,0.781v-5.566c-1.107,0.456-2.182,0.879-3.223,1.27l-0.684-0.391
				c2.278-2.798,4.199-5.696,5.762-8.691c1.172-2.278,2.344-5.599,3.516-9.961l13.77,3.125c1.041,0.261,1.563,0.781,1.563,1.563
				c0,0.586-0.944,1.206-2.832,1.855c-0.326,0.391-0.619,0.684-0.879,0.879h17.285l6.738-7.813l9.668,7.813l-1.855,2.637h-6.445
				l5.957,4.297l-1.172,2.832h-5.078l6.641,4.102c0.846,0.456,1.27,0.879,1.27,1.27c0,0.586-0.944,1.53-2.832,2.832v31.152
				l-11.328,1.27V74.15h-24.121v3.027l-11.719,1.66v-6.25l-0.781,1.953h-25.391v2.246l-4.297,0.684l10.156,3.613h48.047l4.297-3.906
				l10.449,7.031c1.627,1.108,2.441,1.921,2.441,2.441c0,0.651-0.912,1.401-2.734,2.246v15.723l2.734-4.297l6.934,7.422
				l-1.465,2.637h-90.723l-1.074-2.637h6.641V78.252l-3.516,0.586V24.932l10.352,3.516h14.648L403.178,21.709z M384.526,41.729
				h5.078V31.084h-5.078V41.729z M384.526,57.354h12.012V44.365h-12.012V57.354z M384.526,71.709h5.078V59.99h-5.078V71.709z
				 M390.678,107.744h6.738V83.916h-6.738V107.744z M410.698,71.318V45.732c-0.391,0.327-1.205,0.651-2.441,0.977v14.063
				l-6.934,1.074v8.691l3.418-4.98L410.698,71.318z M409.917,107.744h7.324V83.916h-7.324V107.744z M422.417,41.729h5.078V31.084
				h-3.027c-1.498,1.237-2.93,2.214-4.297,2.93c-2.279,1.303-4.655,2.539-7.129,3.711L422.417,41.729z M441.752,53.447
				c2.213,0.522,3.711,1.074,4.492,1.66c0.13,0.131,0.228,0.229,0.293,0.293V44.365h-15.332c1.432,0.522,2.474,1.01,3.125,1.465
				c0.65,0.586,0.977,1.27,0.977,2.051c0,0.913-0.326,1.726-0.977,2.441c-0.781,0.717-1.628,1.074-2.539,1.074
				c-0.456,0-0.879-0.228-1.27-0.684c-0.456-0.325-0.717-1.204-0.781-2.637c-0.131-1.367-0.651-2.603-1.563-3.711h-5.762v9.57
				c2.994,0.717,4.947,1.433,5.859,2.148c0.977,0.913,1.465,1.855,1.465,2.832c0,0.781-0.293,1.53-0.879,2.246
				c-0.651,0.847-1.237,1.27-1.758,1.27c-1.172,0-1.986-1.009-2.441-3.027c-0.391-1.692-1.14-3.157-2.246-4.395v15.234
				c3.775-3.384,6.934-6.9,9.473-10.547c0.195-0.325,0.391-0.65,0.586-0.977c-0.261-0.521-0.521-0.943-0.781-1.27
				c-1.758-2.344-4.721-5.533-8.887-9.57V47.49c4.557,2.214,8.365,4.492,11.426,6.836c0.195,0.131,0.325,0.229,0.391,0.293
				c1.172-2.734,2.148-5.859,2.93-9.375l7.422,1.855c0.521,0.195,0.781,0.456,0.781,0.781c0,0.261-0.488,0.522-1.465,0.781
				C443.445,50.485,442.598,52.08,441.752,53.447z M422.417,71.416h8.887c-0.131-0.521-0.229-1.204-0.293-2.051
				c-0.131-1.106-0.424-2.051-0.879-2.832c-2.344,1.628-4.916,3.125-7.715,4.492V71.416z M429.741,107.744h7.422V83.916h-7.422
				V107.744z M431.694,65.166c2.083,0.717,3.45,1.303,4.102,1.758c0.65,0.586,0.977,1.27,0.977,2.051
				c0,0.977-0.261,1.792-0.781,2.441h10.547V60.967c-0.326,0.131-0.586,0.195-0.781,0.195c-1.563,0-2.637-0.977-3.223-2.93
				c-0.456-1.106-1.074-2.115-1.855-3.027c-0.651,1.042-1.27,1.987-1.855,2.832c0.911,0.913,1.692,1.792,2.344,2.637
				c1.563,2.084,2.344,3.972,2.344,5.664c0,0.781-0.293,1.465-0.879,2.051c-0.651,0.651-1.303,0.977-1.953,0.977
				c-2.214,0-3.711-1.172-4.492-3.516c-0.391-1.106-0.847-2.181-1.367-3.223C433.777,63.54,432.735,64.385,431.694,65.166z
				 M440.385,35.381h7.813l3.906-4.297h-11.719V35.381z M446.733,41.729l3.027-3.516h-9.375v3.516H446.733z"/>
			<linearGradient id="SVGID_8_" gradientUnits="userSpaceOnUse" x1="525.3364" y1="113.8965" x2="525.3364" y2="20.2441">
				<stop  offset="0" style="stop-color:#FEC721"/>
				<stop  offset="0.5" style="stop-color:#ED9008"/>
				<stop  offset="1" style="stop-color:#BF5900"/>
			</linearGradient>
			<path fill="url(#SVGID_8_)" d="M491.401,21.025l15.82,6.152h32.617l7.324-6.934l11.23,7.227c1.953,1.237,2.93,2.182,2.93,2.832
				c0,1.108-0.488,1.921-1.465,2.441l-2.441,1.465c0,8.854-0.131,17.319-0.391,25.391h1.563l5.762-9.277l8.594,9.277l-1.855,2.832
				h-14.16c-0.391,10.092-0.944,19.629-1.66,28.613l6.836-8.301l10.449,8.594l-1.855,2.637h-15.723
				c-0.781,8.008-2.441,13.411-4.98,16.211c-2.279,2.474-8.432,3.711-18.457,3.711c-0.131-4.948-0.619-8.171-1.465-9.668
				c-0.586-1.367-2.539-2.539-5.859-3.516v-2.441h13.477c0.195-1.431,0.325-2.864,0.391-4.297H500.19l-0.586,7.031l-16.406,1.172
				l4.004-39.746h-8.301l-1.172-2.832h9.766L491.401,21.025z M500.483,91.338h37.891c0.911-10.156,1.595-19.791,2.051-28.906H503.12
				L500.483,91.338z M503.413,59.6h37.207c0.521-10.416,0.781-20.279,0.781-29.59h-35.352L503.413,59.6z M510.932,63.506
				c9.57,2.734,15.787,5.307,18.652,7.715c2.148,2.214,3.223,4.624,3.223,7.227c0,2.475-0.847,4.688-2.539,6.641
				c-1.758,2.084-3.906,3.125-6.445,3.125c-1.823,0-3.549-0.781-5.176-2.344c-1.433-1.172-2.312-4.004-2.637-8.496
				c-0.586-4.556-2.702-8.496-6.348-11.816L510.932,63.506z M512.495,32.354c9.57,2.28,15.787,4.46,18.652,6.543
				c2.083,1.953,3.125,4.069,3.125,6.348c0,2.539-0.847,4.851-2.539,6.934c-2.019,2.084-4.395,3.125-7.129,3.125
				c-1.758,0-3.354-0.684-4.785-2.051c-1.498-1.172-2.377-3.809-2.637-7.91c-0.521-4.297-2.475-8.008-5.859-11.133L512.495,32.354z"
				/>
			<linearGradient id="SVGID_9_" gradientUnits="userSpaceOnUse" x1="635.5317" y1="113.8965" x2="635.5317" y2="21.0254">
				<stop  offset="0" style="stop-color:#FEC721"/>
				<stop  offset="0.5" style="stop-color:#ED9008"/>
				<stop  offset="1" style="stop-color:#BF5900"/>
			</linearGradient>
			<path fill="url(#SVGID_9_)" d="M602.084,21.416l16.602,1.27c2.018,0.195,3.027,0.815,3.027,1.855c0,0.781-1.303,1.66-3.906,2.637
				v8.203h1.855l6.738-7.813l7.422,6.055V21.025l15.039,6.543h11.719l5.566-6.543l11.328,7.227c1.041,0.586,1.563,1.172,1.563,1.758
				c0,0.717-0.879,1.889-2.637,3.516v47.168l-8.203,1.074v13.477c0.064,1.499,0.553,2.246,1.465,2.246h3.906
				c0.977,0,1.92-4.036,2.832-12.109h1.465c0.13,4.753,0.488,7.91,1.074,9.473c0.521,1.499,1.855,2.767,4.004,3.809
				c-0.717,5.533-1.563,8.951-2.539,10.254c-1.042,1.822-2.377,2.734-4.004,2.734h-16.797c-1.498,0-2.734-0.879-3.711-2.637
				c-0.912-1.367-1.367-3.516-1.367-6.445v-25h-2.148c-0.391,10.612-2.409,17.969-6.055,22.07
				c-4.623,5.664-13.379,10.188-26.27,13.574l-0.391-2.051c7.096-3.906,11.914-8.073,14.453-12.5
				c1.888-3.646,3.06-9.668,3.516-18.066l-3.809,0.488v-8.301l-1.27,2.148h-15.137v4.492c5.989,1.499,10.025,3.125,12.109,4.883
				c2.604,2.214,3.906,4.558,3.906,7.031c0,1.758-0.651,3.452-1.953,5.078c-1.303,1.497-2.637,2.246-4.004,2.246
				c-3.061,0-5.144-2.31-6.25-6.934c-0.912-2.864-2.182-5.435-3.809-7.715v28.027l-14.941,1.855V97.393
				c-4.948,2.994-9.473,5.273-13.574,6.836l-0.781-0.781c3.32-4.362,6.217-9.341,8.691-14.941c1.692-3.711,3.125-8.235,4.297-13.574
				h-10.352l-1.172-2.832h12.891V61.65l14.941,0.879c2.018,0.327,3.027,0.913,3.027,1.758c0,0.847-1.01,1.66-3.027,2.441V72.1h2.246
				l5.957-6.543l8.203,6.25V60.771h-44.531l-1.172-2.637h9.18c-0.195-0.259-0.358-0.488-0.488-0.684
				c-0.717-1.041-1.14-3.32-1.27-6.836c-0.261-3.775-1.172-6.998-2.734-9.668l1.074-1.66c5.664,2.148,9.342,4.167,11.035,6.055
				c1.236,1.758,1.855,3.647,1.855,5.664c0,2.148-0.684,4.038-2.051,5.664c-0.651,0.651-1.27,1.14-1.855,1.465h8.496l4.492-19.922
				h-25.488l-1.074-2.832h12.793V21.416z M633.823,55.303v-17.09h-14.355l10.059,3.613c1.236,0.391,1.855,0.977,1.855,1.758
				c0,0.913-1.303,1.465-3.906,1.66l-11.23,12.891h5.859l6.152-7.129L633.823,55.303z M648.178,42.803h12.891v-12.5h-12.891V42.803z
				 M648.178,58.525h12.891V45.635h-12.891V58.525z M648.178,74.932h12.891v-13.77h-12.891V74.932z"/>
			<linearGradient id="SVGID_10_" gradientUnits="userSpaceOnUse" x1="745.3364" y1="114.2871" x2="745.3364" y2="20.6348">
				<stop  offset="0" style="stop-color:#FEC721"/>
				<stop  offset="0.5" style="stop-color:#ED9008"/>
				<stop  offset="1" style="stop-color:#BF5900"/>
			</linearGradient>
			<path fill="url(#SVGID_10_)" d="M710.62,21.416l16.309,2.637c1.106,0.391,1.66,0.944,1.66,1.66c0,0.586-1.074,1.206-3.223,1.855
				c-1.498,2.475-2.963,4.688-4.395,6.641h9.961l6.934-8.496l10.254,8.203c1.172-3.255,2.474-7.681,3.906-13.281l16.699,2.539
				c1.107,0.456,1.66,1.042,1.66,1.758c0,0.717-1.074,1.465-3.223,2.246c-1.758,2.8-3.451,5.273-5.078,7.422H773.9l7.422-8.887
				l10.84,8.887l-1.855,2.832h-21.191c2.475,0.586,4.232,1.172,5.273,1.758c1.758,1.172,2.637,2.377,2.637,3.613
				c0,2.148-0.748,4.038-2.246,5.664c-1.498,1.694-3.354,2.539-5.566,2.539c-1.432,0-2.768-0.455-4.004-1.367
				c-1.172-0.781-1.889-2.539-2.148-5.273c-0.391-2.474-1.66-4.622-3.809-6.445c-1.562,2.019-3.06,3.613-4.492,4.785
				c-1.889,1.694-3.776,3.061-5.664,4.102l14.843,6.641h6.641l5.957-7.031l12.695,7.422c0.977,0.717,1.465,1.335,1.465,1.855
				c0,0.781-1.205,1.855-3.613,3.223v37.793c0.131,2.994-0.717,5.403-2.539,7.227c-2.279,2.148-6.9,3.287-13.867,3.418
				c-0.521-5.991-1.205-9.733-2.051-11.23c-1.303-2.212-2.963-3.809-4.98-4.785v-1.27h7.813V56.084h-8.203v56.348l-15.136,1.855
				V47.49c-2.344,1.367-4.688,2.441-7.031,3.223l-0.391-1.172c2.213-3.255,4.231-7.324,6.055-12.207
				c0.195-0.521,0.455-1.106,0.781-1.758l-1.074,1.465h-21.484c3.125,0.913,5.338,1.758,6.641,2.539
				c1.563,1.367,2.344,2.832,2.344,4.395c0,2.019-0.651,3.842-1.953,5.469c-1.563,1.563-3.386,2.344-5.469,2.344
				c-1.367,0-2.604-0.488-3.711-1.465c-1.172-0.845-1.855-2.734-2.051-5.664c-0.326-2.408-1.303-4.524-2.93-6.348
				c-1.823,2.409-3.516,4.265-5.078,5.566c-2.475,2.148-4.916,3.906-7.324,5.273l13.965,4.688h9.277l5.664-5.176l10.645,7.031
				c0.977,0.781,1.465,1.465,1.465,2.051c0,0.717-0.879,1.465-2.637,2.246v21.094l-14.941,2.051v-4.297h-9.277v13.086l10.449-1.27
				c-0.912-2.083-2.084-3.97-3.516-5.664l1.27-1.465c8.398,3.061,13.834,5.925,16.309,8.594c1.822,2.475,2.734,5.209,2.734,8.203
				c0,2.148-0.717,4.102-2.148,5.859c-1.693,1.822-3.711,2.734-6.055,2.734c-1.498,0-2.963-0.815-4.395-2.441
				c-1.237-1.237-1.986-4.199-2.246-8.887c-0.065-0.911-0.195-1.758-0.391-2.539l-23.047,14.16c-0.781,2.148-1.66,3.223-2.637,3.223
				c-0.586,0-1.172-0.781-1.758-2.344l-4.883-15.723l4.98-0.586V49.834c-1.823,0.977-3.613,1.758-5.371,2.344l-0.391-1.172
				c2.344-3.32,4.524-7.486,6.543-12.5C706.616,35.122,708.471,29.424,710.62,21.416z M719.604,56.475v8.203h9.277v-8.203H719.604z
				 M719.604,67.51v8.496h9.277V67.51H719.604z"/>
			<linearGradient id="SVGID_11_" gradientUnits="userSpaceOnUse" x1="855.5313" y1="110.3809" x2="855.5313" y2="20.6348">
				<stop  offset="0" style="stop-color:#FEC721"/>
				<stop  offset="0.5" style="stop-color:#ED9008"/>
				<stop  offset="1" style="stop-color:#BF5900"/>
			</linearGradient>
			<path fill="url(#SVGID_11_)" d="M889.271,24.932l10.254,8.203l-2.051,2.637H869.74c0.65,7.227,1.953,12.827,3.906,16.797
				c2.475-3.97,4.947-8.528,7.422-13.672l13.77,8.008c1.041,0.586,1.563,1.172,1.563,1.758c0,1.108-1.172,1.792-3.516,2.051
				c-3.971,4.428-7.617,8.171-10.938,11.23c2.279,1.628,4.98,3.223,8.105,4.785l7.813-13.281l2.051,0.781
				c-1.889,6.25-2.832,10.288-2.832,12.109c0.326,3.32,1.4,5.502,3.223,6.543c-0.26,1.953-1.107,3.906-2.539,5.859
				c-1.563,1.823-3.32,2.734-5.273,2.734c-0.65,0-1.334-0.032-2.051-0.098l2.441,1.465c0.977,0.651,1.465,1.237,1.465,1.758
				c0,0.651-1.303,1.726-3.906,3.223v18.555l4.297-7.227l7.813,8.594l-1.465,2.637h-91.113l-1.074-2.637h9.668V79.033
				c-2.475,2.409-5.338,4.655-8.594,6.738L808.51,84.6c2.279-3.711,3.971-8.105,5.078-13.184c0.912-4.751,1.4-11.556,1.465-20.41
				V26.396l15.918,6.738h23.73c-0.391-3.97-0.684-8.138-0.879-12.5l17.188,0.488c0.391,0.065,0.717,0.163,0.977,0.293
				c6.055,0,10.025,0.586,11.914,1.758c2.084,1.172,3.125,2.637,3.125,4.395L889.271,24.932z M873.939,81.865l4.492-4.59
				c-3.385-1.497-6.445-3.516-9.18-6.055c-6.119,3.386-13.379,6.413-21.777,9.082l-0.684-1.074
				c6.967-4.556,12.729-9.212,17.285-13.965c-0.521-0.65-0.977-1.27-1.367-1.855c-3.646-5.403-6.217-14.615-7.715-27.637h-24.316
				v10.645h9.18l6.152-5.469l10.254,6.934c0.65,0.522,0.977,1.206,0.977,2.051c0,0.651-0.488,1.172-1.465,1.563l-1.953,0.684
				c0,5.729-0.553,11.069-1.66,16.016c-0.912,3.972-2.408,6.479-4.492,7.52c-2.344,0.977-6.705,1.465-13.086,1.465
				c0.064-4.556-0.424-7.52-1.465-8.887c-1.107-1.626-2.832-2.669-5.176-3.125c-0.521,1.367-1.074,2.637-1.66,3.809
				c-1.563,2.995-3.58,5.795-6.055,8.398l12.988,4.492H873.939z M828.725,63.213h9.277c1.236-3.32,1.92-8.008,2.051-14.063h-9.375
				v1.855C830.613,55.368,829.961,59.438,828.725,63.213z M833.51,107.744h5.078V84.6h-5.078V107.744z M851.381,107.744h5.078V84.6
				h-5.078V107.744z M879.018,33.135c-0.65-0.259-1.205-0.65-1.66-1.172c-0.846-0.911-1.367-1.985-1.563-3.223
				c0-1.041-0.357-2.051-1.074-3.027c-0.326-0.716-1.01-1.497-2.051-2.344c-0.195,0.391-0.488,0.684-0.879,0.879l-2.441,1.074
				c0,2.8,0.064,5.405,0.195,7.813H879.018z M869.35,107.744h5.566V84.6h-5.566V107.744z"/>
			<linearGradient id="SVGID_12_" gradientUnits="userSpaceOnUse" x1="965.3359" y1="114.2871" x2="965.3359" y2="21.0254">
				<stop  offset="0" style="stop-color:#FEC721"/>
				<stop  offset="0.5" style="stop-color:#ED9008"/>
				<stop  offset="1" style="stop-color:#BF5900"/>
			</linearGradient>
			<path fill="url(#SVGID_12_)" d="M955.229,21.025l17.871,1.367c2.148,0.261,3.223,0.977,3.223,2.148
				c0,0.847-1.432,1.855-4.297,3.027v5.566h21.094l5.078-6.348l12.695,9.668c1.107,1.042,1.66,2.116,1.66,3.223
				c0,1.367-1.041,2.051-3.125,2.051h-6.25l-9.277,3.223l0.586,0.391c1.107,0.847,1.66,1.563,1.66,2.148
				c0,0.717-1.139,1.53-3.418,2.441v21.484l-16.406,2.246v-5.859h-24.219v0.781l11.621,3.32c1.563,0.456,2.344,1.206,2.344,2.246
				c0,0.717-1.303,1.335-3.906,1.855l-1.27,2.051h33.398l7.422-9.082l10.84,9.082l-1.855,2.637h-19.922
				c-2.93,4.819-5.729,8.92-8.398,12.305c2.084,0.195,3.744,0.424,4.98,0.684c4.557,0.913,8.301,2.409,11.23,4.492
				c2.604,1.822,3.906,3.97,3.906,6.445c0,2.278-0.943,4.524-2.832,6.738c-2.084,1.953-4.135,2.93-6.152,2.93
				c-2.213,0-4.688-1.401-7.422-4.199c-2.994-2.734-7.193-5.437-12.598-8.105c-4.102,3.125-9.082,5.501-14.941,7.129
				c-9.701,2.798-22.168,4.263-37.402,4.395v-1.465c14.322-2.214,24.967-5.632,31.934-10.254c2.213-1.303,4.361-3.027,6.445-5.176
				c-2.93-0.911-6.088-1.79-9.473-2.637l-4.297,6.348l-14.746-4.297l10.645-15.332h-22.363l-1.172-2.637h25.488l4.785-6.934
				l-12.305,1.758V38.213l15.723,5.371h24.414l6.641-5.762l6.836,4.395l3.516-6.445h-59.18c0.326,2.019,0.488,3.874,0.488,5.566
				c0,3.776-0.586,6.511-1.758,8.203c-1.563,2.019-3.58,3.027-6.055,3.027c-2.539,0-4.557-0.586-6.055-1.758
				c-1.432-1.497-2.148-3.091-2.148-4.785c0-3.125,1.953-5.859,5.859-8.203c3.516-2.344,5.6-5.892,6.25-10.645h1.855
				c0.521,2.084,0.912,4.069,1.172,5.957h21.582V21.025z M952.104,54.619h24.219v-8.203h-24.219V54.619z M952.104,65.068h24.219
				v-7.715h-24.219V65.068z M952.201,90.85c4.361,0.195,8.301,0.424,11.816,0.684c2.539-3.189,4.947-6.802,7.227-10.84h-12.207
				L952.201,90.85z"/>
		</g>
	</g>
</g>
<g id="圖層_4">
</g>
<g id="圖層_5">
</g>
<g id="圖層_1">
</g>
</svg>
